<svg xmlns="http://www.w3.org/2000/svg" viewBox="0 0 24 24" role="img" aria-label="Discord">
  <rect width="24" height="24" rx="7" fill="#5865F2"/>
  <path fill="#fff" d="M18.4 6.2A15.3 15.3 0 0 0 14.7 5l-.2.4c1.3.3 1.9.8 2.6 1.4a11.2 11.2 0 0 0-9.2 0c.7-.6 1.5-1.1 2.7-1.4L10.4 5a15.3 15.3 0 0 0-3.7 1.2C4.4 9.7 3.8 13.1 4.1 16.5A15 15 0 0 0 8.6 18.8l.8-1.3c-.5-.2-1-.5-1.5-.7l.4-.3a10 10 0 0 0 7.5 0l.4.3c-.5.3-1 .5-1.5.7l.8 1.3a15 15 0 0 0 4.5-2.3c.4-4-.7-7.4-1.6-10.3ZM9.3 14.5c-.8 0-1.4-.7-1.4-1.6s.6-1.6 1.4-1.6 1.4.7 1.4 1.6-.6 1.6-1.4 1.6Zm5.4 0c-.8 0-1.4-.7-1.4-1.6s.6-1.6 1.4-1.6 1.4.7 1.4 1.6-.6 1.6-1.4 1.6Z"/>
</svg>
